<?xml version="1.0" encoding="UTF-8"?>
<svg width="24px" height="24px" viewBox="0 0 24 24" version="1.1" xmlns="http://www.w3.org/2000/svg" xmlns:xlink="http://www.w3.org/1999/xlink">
    <title>close-svgrepo-com</title>
    <g id="Page-1" stroke="none" stroke-width="1" fill="none" fill-rule="evenodd">
        <g id="close-svgrepo-com" fill="#0EB2F0" fill-rule="nonzero">
            <path d="M21.4628571,0 L2.52734694,0 C1.13142857,0 0,1.13632653 0,2.52734694 L0,21.4628571 C0,22.8587755 1.13632653,23.9902041 2.52734694,23.9902041 L21.4628571,23.9902041 C22.8587755,23.9902041 23.9902041,22.8538776 23.9902041,21.4628571 L23.9902041,2.52734694 C23.9902041,1.13632653 22.8538776,0 21.4628571,0 Z M22.7902041,21.4628571 C22.7902041,22.1926531 22.1926531,22.7902041 21.4628571,22.7902041 L2.52734694,22.7902041 C1.79755102,22.7902041 1.2,22.1926531 1.2,21.4628571 L1.2,2.52734694 C1.2,1.79755102 1.79755102,1.2 2.52734694,1.2 L21.4628571,1.2 C22.1926531,1.2 22.7902041,1.79755102 22.7902041,2.52734694 L22.7902041,21.4628571 Z" id="Shape"></path>
            <path d="M15.6244898,8.36571429 C15.3893878,8.13061224 15.0122449,8.13061224 14.7771429,8.36571429 L11.995102,11.1477551 L9.21306122,8.36571429 C8.97795918,8.13061224 8.60081633,8.13061224 8.36571429,8.36571429 C8.13061224,8.60081633 8.13061224,8.97795918 8.36571429,9.21306122 L11.1477551,11.995102 L8.36571429,14.7771429 C8.13061224,15.0122449 8.13061224,15.3893878 8.36571429,15.6244898 C8.48326531,15.7420408 8.63510204,15.8008163 8.79183673,15.8008163 C8.94857143,15.8008163 9.10040816,15.7420408 9.21795918,15.6244898 L12,12.842449 L14.7820408,15.6244898 C14.8995918,15.7420408 15.0514286,15.8008163 15.2081633,15.8008163 C15.364898,15.8008163 15.5167347,15.7420408 15.6342857,15.6244898 C15.8693878,15.3893878 15.8693878,15.0122449 15.6342857,14.7771429 L12.842449,11.995102 L15.6244898,9.21306122 C15.8595918,8.97795918 15.8595918,8.60081633 15.6244898,8.36571429 Z" id="Path"></path>
        </g>
    </g>
</svg>
