<?xml version="1.0" encoding="UTF-8"?>
<svg width="24px" height="24px" viewBox="0 0 24 24" version="1.1" xmlns="http://www.w3.org/2000/svg" xmlns:xlink="http://www.w3.org/1999/xlink">
    <title>maximize-svgrepo-com</title>
    <g id="Page-1" stroke="none" stroke-width="1" fill="none" fill-rule="evenodd">
        <g id="maximize-svgrepo-com" fill="#043040" fill-rule="nonzero">
            <path d="M7.61691892,5.37567568 L8.98151351,4.01108108 C9.0972973,3.8952973 9.13864865,3.71335135 9.07248649,3.56448649 C9.00632432,3.40735135 8.85745946,3.30810811 8.69205405,3.30810811 L3.72162162,3.30810811 C3.49005405,3.30810811 3.30810811,3.49005405 3.30810811,3.72162162 L3.30810811,8.68378378 C3.30810811,8.84918919 3.40735135,8.99805405 3.56448649,9.06421622 C3.72162162,9.13037838 3.8952973,9.08902703 4.01108108,8.97324324 L5.37567568,7.61691892 L8.39432432,10.6355676 C8.47702703,10.7182703 8.58454054,10.7596216 8.68378378,10.7596216 C8.78302703,10.7596216 8.89881081,10.7182703 8.97324324,10.6355676 L10.6272973,8.98151351 C10.7927027,8.81610811 10.7927027,8.55972973 10.6272973,8.39432432 L7.61691892,5.37567568 Z M8.68378378,9.75064865 L5.66513514,6.74027027 C5.58243243,6.65756757 5.47491892,6.61621622 5.37567568,6.61621622 C5.27643243,6.61621622 5.16064865,6.65756757 5.08621622,6.74027027 L4.13513514,7.68308108 L4.13513514,4.13513514 L7.68308108,4.13513514 L6.74027027,5.08621622 C6.57486486,5.25162162 6.57486486,5.508 6.74027027,5.67340541 L9.75891892,8.69205405 L8.68378378,9.75064865 Z" id="Shape" transform="translate(7.029730, 7.033865) rotate(-180.000000) translate(-7.029730, -7.033865) "></path>
            <path d="M20.2538919,3.30810811 L15.2917297,3.30810811 C15.1263243,3.30810811 14.9774595,3.40735135 14.9112973,3.56448649 C14.8451351,3.72162162 14.8864865,3.8952973 15.0022703,4.01108108 L16.3668649,5.37567568 L13.3564865,8.39432432 C13.1910811,8.55972973 13.1993514,8.81610811 13.3564865,8.98151351 L15.0105405,10.6355676 C15.084973,10.71 15.1924865,10.7596216 15.3,10.7596216 L15.3,10.7596216 C15.4075135,10.7596216 15.515027,10.7182703 15.5894595,10.6355676 L18.6081081,7.61691892 L19.9727027,8.98151351 C20.0884865,9.0972973 20.2704324,9.13864865 20.4192973,9.07248649 C20.5764324,9.00632432 20.6756757,8.85745946 20.6756757,8.69205405 L20.6756757,3.72162162 C20.6674054,3.49005405 20.4854595,3.30810811 20.2538919,3.30810811 Z M19.8403784,7.68308108 L18.8892973,6.732 C18.8148649,6.65756757 18.7073514,6.60794595 18.5998378,6.60794595 L18.5998378,6.60794595 C18.4923243,6.60794595 18.3848108,6.6492973 18.3103784,6.732 L15.3,9.75064865 L14.2331351,8.68378378 L17.2435135,5.66513514 C17.4089189,5.49972973 17.4006486,5.24335135 17.2435135,5.07794595 L16.2924324,4.13513514 L19.8403784,4.13513514 L19.8403784,7.68308108 Z" id="Shape" transform="translate(16.955595, 7.033865) rotate(-180.000000) translate(-16.955595, -7.033865) "></path>
            <path d="M8.97324324,13.3564865 C8.80783784,13.1910811 8.55145946,13.1910811 8.38605405,13.3564865 L5.37567568,16.3668649 L4.01108108,15.0022703 C3.8952973,14.8864865 3.71335135,14.8451351 3.56448649,14.9112973 C3.40735135,14.9774595 3.30810811,15.1263243 3.30810811,15.2917297 L3.30810811,20.2538919 C3.30810811,20.4854595 3.49005405,20.6674054 3.72162162,20.6674054 L8.68378378,20.6674054 L8.68378378,20.6674054 C8.91535135,20.6674054 9.0972973,20.4854595 9.0972973,20.2538919 C9.0972973,20.1298378 9.03940541,20.0140541 8.9567027,19.9396216 L7.61691892,18.6081081 L10.6355676,15.5894595 C10.800973,15.4240541 10.800973,15.1676757 10.6355676,15.0022703 L8.97324324,13.3564865 Z M6.74027027,18.3186486 C6.57486486,18.4840541 6.57486486,18.7404324 6.74027027,18.9058378 L7.68308108,19.8486486 L4.13513514,19.8486486 L4.13513514,16.3007027 L5.08621622,17.2517838 C5.25162162,17.4171892 5.508,17.4171892 5.67340541,17.2517838 L8.69205405,14.2331351 L9.75891892,15.3 L6.74027027,18.3186486 Z" id="Shape" transform="translate(7.033865, 16.949919) rotate(-180.000000) translate(-7.033865, -16.949919) "></path>
            <path d="M20.4192973,14.9195676 C20.2621622,14.8534054 20.0884865,14.8947568 19.9727027,15.0105405 L18.6081081,16.3668649 L15.5977297,13.3482162 C15.5232973,13.2737838 15.4157838,13.2241622 15.3082703,13.2241622 L15.3082703,13.2241622 C15.2007568,13.2241622 15.0932432,13.2655135 15.0188108,13.3482162 L13.3647568,15.0022703 C13.1993514,15.1676757 13.1993514,15.4240541 13.3647568,15.5894595 L16.3751351,18.6081081 L15.0105405,19.9727027 C14.8947568,20.0884865 14.8534054,20.2704324 14.9195676,20.4192973 C14.9857297,20.5764324 15.1345946,20.6756757 15.3,20.6756757 L20.2621622,20.6756757 C20.4937297,20.6756757 20.6756757,20.4937297 20.6756757,20.2621622 L20.6756757,15.3 C20.6674054,15.1345946 20.5681622,14.9857297 20.4192973,14.9195676 Z M19.8403784,19.8486486 L16.2924324,19.8486486 L17.2435135,18.8975676 C17.4089189,18.7321622 17.4089189,18.4757838 17.2435135,18.3103784 L14.2331351,15.3 L15.3,14.2331351 L18.3103784,17.2517838 C18.3848108,17.3262162 18.4923243,17.3758378 18.5998378,17.3758378 L18.5998378,17.3758378 C18.7073514,17.3758378 18.8148649,17.3344865 18.8892973,17.2517838 L19.8403784,16.3007027 L19.8403784,19.8486486 L19.8403784,19.8486486 Z" id="Shape" transform="translate(16.958189, 16.949919) rotate(-180.000000) translate(-16.958189, -16.949919) "></path>
            <path d="M21.9162162,0 L2.06756757,0 C0.92627027,0 0,0.92627027 0,2.06756757 L0,21.9162162 C0,23.0575135 0.92627027,23.9837838 2.06756757,23.9837838 L21.9162162,23.9837838 C23.0575135,23.9837838 23.9837838,23.0575135 23.9837838,21.9162162 L23.9837838,2.06756757 C23.9837838,0.92627027 23.0575135,0 21.9162162,0 Z M23.1567568,21.9162162 C23.1567568,22.6026486 22.6026486,23.1567568 21.9162162,23.1567568 L2.06756757,23.1567568 C1.38113514,23.1567568 0.827027027,22.6026486 0.827027027,21.9162162 L0.827027027,2.06756757 C0.827027027,1.38113514 1.38113514,0.827027027 2.06756757,0.827027027 L21.9162162,0.827027027 C22.6026486,0.827027027 23.1567568,1.38113514 23.1567568,2.06756757 L23.1567568,21.9162162 Z" id="Shape"></path>
        </g>
    </g>
</svg>
